<!-- icon666.com - MILLIONS vector ICONS FREE --><svg id="Layer_1" enable-background="new 0 0 512 512" viewBox="0 0 512 512" xmlns="http://www.w3.org/2000/svg" xmlns:xlink="http://www.w3.org/1999/xlink"><linearGradient id="SVGID_1_" gradientUnits="userSpaceOnUse" x1="256.003" x2="256.003" y1="0" y2="512"><stop offset="0" stop-color="#01f1fe"></stop><stop offset="1" stop-color="#4fadfe"></stop></linearGradient><path d="m256 0c-141.157 0-255.997 114.842-255.997 256.002 0 141.158 114.84 255.998 255.997 255.998 141.16 0 256.002-114.84 256.002-255.997 0-141.161-114.841-256.003-256.002-256.003zm127.002 304.477c0 3.89-.239 7.759-1.985 11.316-2.329 4.745-5.364 9.183-8.915 13.094-7.973 8.78-19.834 16.704-33.399 22.313-12.372 5.116-25.101 7.867-36.23 7.867-12.585 0-27.693-4.247-32.974-17.02-7.726-18.688 10.161-41.966 42.533-55.351 13.565-5.609 27.559-8.376 39.404-7.79 2.762.137 5.271.446 7.565.886v-87.338l-134.731 21.455v120.391c0 1.419.038 2.855-.076 4.273-.48 6.011-3.19 13.513-10.823 21.919-7.973 8.78-19.834 16.704-33.4 22.313-12.371 5.116-25.101 7.867-36.23 7.867-12.735 0-27.634-4.106-32.973-17.019-7.727-18.688 10.161-41.967 42.533-55.352 17.594-7.275 34.213-9.447 46.969-6.925v-134.153c0-19.419 13.919-35.73 33.097-38.784l104.186-16.591c11.706-1.864 22.654 1.218 31.669 8.91 9.015 7.693 13.779 18.023 13.779 29.875v143.844zm-24 .558v.061c-.171 3.561-8.873 15.409-29.47 23.926-20.7 8.559-35.275 6.25-37.805 3.836.085-3.495 8.774-15.423 29.476-23.982 20.688-8.554 35.258-6.253 37.799-3.841zm-158.725 31.609c-.086 3.496-8.775 15.423-29.476 23.982-20.7 8.56-35.275 6.25-37.805 3.836.085-3.495 8.773-15.423 29.476-23.983 20.702-8.558 35.276-6.248 37.805-3.835zm158.725-176.012v7.521l-134.731 21.455v-12.386c0-7.552 5.413-13.895 12.871-15.083l104.187-16.591c4.684-.744 8.709.388 12.315 3.465 3.605 3.078 5.358 6.879 5.358 11.619z" fill="url(#SVGID_1_)"></path></svg>