<?xml version="1.0" encoding="iso-8859-1"?>
<!-- Uploaded to: SVG Repo, www.svgrepo.com, Generator: SVG Repo Mixer Tools -->
<!DOCTYPE svg PUBLIC "-//W3C//DTD SVG 1.1//EN" "http://www.w3.org/Graphics/SVG/1.1/DTD/svg11.dtd">
<svg fill="#000000" version="1.1" id="Capa_1" xmlns="http://www.w3.org/2000/svg" xmlns:xlink="http://www.w3.org/1999/xlink" 
	 width="800px" height="800px" viewBox="0 0 98.16 98.16" xml:space="preserve"
	>
<g>
	<g>
		<path d="M68.227,39.258c-1.221-0.876-2.795-1.108-4.224-0.626L43.51,45.57c-2.617,0.889-4.379,3.339-4.396,6.105l-0.067,17.967
			c-0.569-0.082-1.146-0.129-1.744-0.129c-5.145,0-9.317,3.176-9.317,7.094c0,3.914,4.173,7.098,9.317,7.098
			s9.318-3.184,9.318-7.098V59.086c0-1.148,0.734-2.173,1.821-2.543l11.933-4.042c0.516-0.167,1.078-0.085,1.52,0.228
			c0.442,0.32,0.706,0.828,0.706,1.373v9.977c-0.569-0.082-1.146-0.124-1.745-0.124c-5.142,0-9.315,3.175-9.315,7.095
			c0,3.914,4.175,7.092,9.315,7.092c5.146,0,9.321-3.178,9.321-7.092c0-0.152,0-18.037,0-27.992
			C70.176,41.548,69.453,40.133,68.227,39.258z"/>
		<path d="M78.515,29.483c-0.7-0.059-1.343-0.417-1.761-0.98c-3.999-5.415-10.424-8.754-17.258-8.754
			c-0.432,0-0.865,0.014-1.299,0.04c-0.582,0.035-1.153-0.138-1.619-0.488c-4.156-3.142-9.198-4.845-14.479-4.845
			c-9.454,0-17.844,5.482-21.759,13.781c-0.352,0.745-1.056,1.262-1.872,1.376C8.049,31.064,0,40.035,0,50.852
			c0,11.824,9.619,21.443,21.444,21.443h3.313c1.7-3.537,5.441-6.142,10.081-6.826l0.007-1.623h-13.4
			c-7.165,0-12.997-5.83-12.997-12.994c0-7.166,5.831-12.996,12.996-12.996c0.361,0,0.718,0.028,1.07,0.058
			c2.065,0.16,3.936-1.18,4.439-3.183C28.7,27.767,34.929,22.903,42.1,22.903c4.097,0,7.975,1.584,10.92,4.457
			c1.008,0.98,2.436,1.399,3.813,1.112c0.876-0.184,1.772-0.276,2.663-0.276c5.018,0,9.498,2.822,11.693,7.362
			c0.771,1.596,2.457,2.545,4.223,2.363c0.439-0.043,0.88-0.065,1.305-0.065c7.166,0,12.995,5.83,12.995,12.996
			c0,7.164-5.829,12.994-12.995,12.994H74.4v7.203c0,0.42-0.033,0.836-0.086,1.246h2.402c11.825,0,21.443-9.619,21.443-21.443
			C98.16,39.632,89.502,30.398,78.515,29.483z"/>
	</g>
</g>
</svg>